<?xml version="1.0" encoding="UTF-8"?>
<svg viewBox="0 0 790.08954 568.26678" xmlns="http://www.w3.org/2000/svg" xmlns:xlink="http://www.w3.org/1999/xlink">
 <defs>
  <filter id="ap">
   <feGaussianBlur stdDeviation="4.52847"/>
  </filter>
  <filter id="k">
   <feGaussianBlur stdDeviation=".66156"/>
  </filter>
  <filter id="s">
   <feGaussianBlur stdDeviation=".54686"/>
  </filter>
  <filter id="v">
   <feGaussianBlur stdDeviation="4.28145"/>
  </filter>
  <filter id="u">
   <feGaussianBlur stdDeviation="2.35878"/>
  </filter>
  <filter id="t">
   <feGaussianBlur stdDeviation="1.90925"/>
  </filter>
  <filter id="l">
   <feGaussianBlur stdDeviation=".26063"/>
  </filter>
  <filter id="b">
   <feGaussianBlur stdDeviation=".61781"/>
  </filter>
  <filter id="av">
   <feGaussianBlur stdDeviation=".87542"/>
  </filter>
  <filter id="aw">
   <feGaussianBlur stdDeviation=".88058"/>
  </filter>
  <filter id="ax">
   <feGaussianBlur stdDeviation=".72428"/>
  </filter>
  <filter id="ay">
   <feGaussianBlur stdDeviation="1.05446"/>
  </filter>
  <filter id="az">
   <feGaussianBlur stdDeviation="1.462"/>
  </filter>
  <filter id="i">
   <feGaussianBlur stdDeviation="7.00124"/>
  </filter>
  <filter id="au" x="-.06299" y="-.70647" width="1.126" height="2.4129">
   <feGaussianBlur stdDeviation="8.59794"/>
  </filter>
  <filter id="at" x="-.05755" y="-.41921" width="1.1151" height="1.8384">
   <feGaussianBlur stdDeviation="5.14989"/>
  </filter>
  <filter id="as" x="-.14427" y="-.58335" width="1.2885" height="2.1667">
   <feGaussianBlur stdDeviation="7.78584"/>
  </filter>
  <filter id="ar" x="-.06458" y="-.29602" width="1.1292" height="1.592">
   <feGaussianBlur stdDeviation="4.25044"/>
  </filter>
  <filter id="aq" x="-.05993" y="-.24606" width="1.1199" height="1.4921">
   <feGaussianBlur stdDeviation="3.98012"/>
  </filter>
  <filter id="h" x="-.13743" y="-.40485" width="1.2748" height="1.8097">
   <feGaussianBlur stdDeviation="12.48284"/>
  </filter>
  <filter id="j" x="-.11003" y="-.11782" width="1.2201" height="1.2356">
   <feGaussianBlur stdDeviation="3.46748"/>
  </filter>
  <linearGradient id="y" x1="334.15" x2="500.05" y1="261.79" y2="819.4" gradientUnits="userSpaceOnUse">
   <stop stop-color="#e6e6e6" offset="0"/>
   <stop stop-color="#323232" offset="1"/>
  </linearGradient>
  <linearGradient id="a">
   <stop stop-color="#fff" offset="0"/>
   <stop stop-color="#fff" stop-opacity="0" offset="1"/>
  </linearGradient>
  <linearGradient id="c">
   <stop stop-color="#323276" offset="0"/>
   <stop stop-color="#5050a0" offset="1"/>
  </linearGradient>
  <linearGradient id="p">
   <stop stop-color="#327a32" offset="0"/>
   <stop stop-color="#50a050" offset="1"/>
  </linearGradient>
  <linearGradient id="o">
   <stop stop-color="#0044bf" offset="0"/>
   <stop stop-color="#59afff" offset="1"/>
  </linearGradient>
  <linearGradient id="n">
   <stop stop-color="#4ea900" offset="0"/>
   <stop stop-color="#6faf1b" offset="1"/>
  </linearGradient>
  <linearGradient id="m">
   <stop stop-color="#a40" offset="0"/>
   <stop stop-color="#ffaf69" offset="1"/>
  </linearGradient>
  <linearGradient id="r" x1="346.72" x2="405.46" y1="-231.54" y2="-3.5142" gradientUnits="userSpaceOnUse" xlink:href="#a"/>
  <linearGradient id="q" x1="306.75" x2="284.61" y1="798.16" y2="686.35" gradientUnits="userSpaceOnUse" xlink:href="#a"/>
  <linearGradient id="g" x1="273.27" x2="239.99" y1="204.23" y2="178.1" gradientUnits="userSpaceOnUse" xlink:href="#a"/>
  <linearGradient id="f" x1="213.56" x2="249.33" y1="144.09" y2="180.96" gradientUnits="userSpaceOnUse" xlink:href="#a"/>
  <linearGradient id="ai" x1="332.01" x2="662.67" gradientUnits="userSpaceOnUse" xlink:href="#c"/>
  <linearGradient id="ah" x1="331.53" x2="550.73" y1="371.41" y2="378.69" gradientUnits="userSpaceOnUse" xlink:href="#c"/>
  <linearGradient id="ao" x1="332.33" x2="464.6" y1="440.67" y2="449.46" gradientUnits="userSpaceOnUse" xlink:href="#c"/>
  <linearGradient id="an" x1="495.58" x2="660.27" y1="526.5" y2="542.94" gradientUnits="userSpaceOnUse" xlink:href="#c"/>
  <linearGradient id="am" x1="447.84" x2="606.57" y1="595.62" y2="616.8" gradientUnits="userSpaceOnUse" xlink:href="#c"/>
  <linearGradient id="ak" x1="332.01" x2="662.67" gradientUnits="userSpaceOnUse" xlink:href="#p"/>
  <linearGradient id="al" x1="374.34" x2="355.57" y1="288.14" y2="356.28" gradientUnits="userSpaceOnUse" xlink:href="#a"/>
  <linearGradient id="aj" x1="331.53" x2="550.73" y1="371.41" y2="378.69" gradientUnits="userSpaceOnUse" xlink:href="#p"/>
  <linearGradient id="ag" x1="351.23" x2="351.88" y1="372.07" y2="429.66" gradientUnits="userSpaceOnUse" xlink:href="#a"/>
  <linearGradient id="af" x1="365.65" x2="362.84" y1="442.88" y2="508.34" gradientUnits="userSpaceOnUse" xlink:href="#a"/>
  <linearGradient id="ae" x1="562.31" x2="556.36" y1="515.82" y2="610.1" gradientUnits="userSpaceOnUse" xlink:href="#a"/>
  <linearGradient id="ad" x1="521.56" x2="518.68" y1="600.72" y2="680.61" gradientUnits="userSpaceOnUse" xlink:href="#a"/>
  <linearGradient id="ac" x1="-39.846" x2="93.445" y1="569.05" y2="785.23" gradientUnits="userSpaceOnUse" xlink:href="#o"/>
  <linearGradient id="d" x1="466.2" x2="666.17" y1="305.7" y2="531.98" gradientUnits="userSpaceOnUse" xlink:href="#a"/>
  <linearGradient id="x" x1="577.81" x2="725.74" y1="213.94" y2="375.2" gradientUnits="userSpaceOnUse" xlink:href="#o"/>
  <linearGradient id="e" x1="565.75" x2="635.38" y1="214.85" y2="272.85" gradientUnits="userSpaceOnUse" xlink:href="#a"/>
  <linearGradient id="ab" x1="97.297" x2="230.59" y1="580.47" y2="796.66" gradientUnits="userSpaceOnUse" xlink:href="#n"/>
  <linearGradient id="w" x1="577.81" x2="725.74" y1="213.94" y2="375.2" gradientUnits="userSpaceOnUse" xlink:href="#n"/>
  <linearGradient id="z" x1="31.583" x2="164.87" y1="583.33" y2="799.52" gradientUnits="userSpaceOnUse" xlink:href="#m"/>
  <linearGradient id="aa" x1="577.81" x2="725.74" y1="213.94" y2="375.2" gradientUnits="userSpaceOnUse" xlink:href="#m"/>
 </defs>
 <g transform="translate(52.98 -255.57)">
  <path d="m673.28 268.22-332.84 5.8125-136.75 2.375c-27.696 0.48344-52.748 8.2858-63.125 33.969l-113.62 281.19c-10.377 25.683-8.5973 60.965 18.594 66.25l169.09 32.875 416.22 80.906c27.191 5.2854 56.336-15.78 58.75-43.375l34.719-396.84c2.4142-27.595-23.335-63.64-51.031-63.156z" filter="url(#ap)" opacity=".79592" stroke="#000" stroke-width="3.5433"/>
  <path d="m665.28 260.22-332.84 5.8125-125.81 416.66 416.22 80.906c27.191 5.2854 56.336-15.78 58.75-43.375l34.719-396.84c2.4142-27.595-23.335-63.64-51.031-63.156z" fill="url(#y)" opacity=".99184" stroke="#000" stroke-width="3.5433"/>
  <path d="m332.44 266.03-136.75 2.375c-27.696 0.48344-52.748 8.2858-63.125 33.969l-113.62 281.19c-10.377 25.683-8.5973 60.965 18.594 66.25l169.09 32.875 125.81-416.66z" fill="#0ff" opacity=".99184" stroke="#000" stroke-width="3.5433"/>
  <path d="m112.19 352.75 192.47 5.2082" fill="none" stroke="#000" stroke-linecap="round" stroke-width="3"/>
  <path d="m87.788 413.16 196.63 11.854" fill="none" stroke="#000" stroke-width="3"/>
  <path d="m63.92 472.23 200.57 18.783" fill="none" stroke="#000" stroke-width="3"/>
  <path d="m40.521 530.14 204.31 25.992" fill="none" stroke="#000" stroke-width="3"/>
  <path transform="matrix(.79864 -.60182 .60182 .79864 -164.21 582.58)" d="m242.38 143c-3.3122 0-6 2.6878-6 6v19h-19c-3.3122 0-6 2.6878-6 6v4.1562c0 3.3122 2.6878 6 6 6h19v19c0 3.3122 2.6878 6 6 6h4.1562c3.3122 0 6-2.6878 6-6v-19h19c3.3122 0 6-2.6878 6-6v-4.1562c0-3.3122-2.6878-6-6-6h-19v-19c0-3.3122-2.6878-6-6-6h-4.1562z" filter="url(#k)" opacity=".79592"/>
  <path transform="matrix(.79864 -.60182 .60182 .79864 -143.04 521.02)" d="m242.38 143c-3.3122 0-6 2.6878-6 6v19h-19c-3.3122 0-6 2.6878-6 6v4.1562c0 3.3122 2.6878 6 6 6h19v19c0 3.3122 2.6878 6 6 6h4.1562c3.3122 0 6-2.6878 6-6v-19h19c3.3122 0 6-2.6878 6-6v-4.1562c0-3.3122-2.6878-6-6-6h-19v-19c0-3.3122-2.6878-6-6-6h-4.1562z" filter="url(#k)" opacity=".79592"/>
  <path transform="matrix(.79864 -.60182 .60182 .79864 -120.79 457.38)" d="m242.38 143c-3.3122 0-6 2.6878-6 6v19h-19c-3.3122 0-6 2.6878-6 6v4.1562c0 3.3122 2.6878 6 6 6h19v19c0 3.3122 2.6878 6 6 6h4.1562c3.3122 0 6-2.6878 6-6v-19h19c3.3122 0 6-2.6878 6-6v-4.1562c0-3.3122-2.6878-6-6-6h-19v-19c0-3.3122-2.6878-6-6-6h-4.1562z" filter="url(#k)" opacity=".79592"/>
  <path transform="translate(-74.408 320.83)" d="m306.34 43.062c-2.3236-0.24422-4.7545 0.43467-6.6875 2l-25.844 20.938-7.9688-9.8125c-3.139-3.8763-8.8774-4.4484-12.75-1.3125-3.871 3.1347-4.485 8.8709-1.3438 12.75l13.312 16.406c0.49735 0.61419 1.0627 1.1233 1.6562 1.5625 0.0182 0.01534 0.0442 0.01608 0.0625 0.03125 0.0346 0.02527 0.0589 0.06904 0.0937 0.09375l0.0312-0.03125c3.2477 2.603 7.9842 2.7518 11.344 0.03125l32.844-26.594c3.8763-3.139 4.4484-8.8774 1.3125-12.75-1.5586-1.9247-3.7462-3.069-6.0625-3.3125z" filter="url(#s)" opacity=".82895"/>
  <path transform="translate(-50.98 257.57)" d="m306.34 43.062c-2.3236-0.24422-4.7545 0.43467-6.6875 2l-25.844 20.938-7.9688-9.8125c-3.139-3.8763-8.8774-4.4484-12.75-1.3125-3.871 3.1347-4.485 8.8709-1.3438 12.75l13.312 16.406c0.49735 0.61419 1.0627 1.1233 1.6562 1.5625 0.0182 0.01534 0.0442 0.01608 0.0625 0.03125 0.0346 0.02527 0.0589 0.06904 0.0937 0.09375l0.0312-0.03125c3.2477 2.603 7.9842 2.7518 11.344 0.03125l32.844-26.594c3.8763-3.139 4.4484-8.8774 1.3125-12.75-1.5586-1.9247-3.7462-3.069-6.0625-3.3125z" filter="url(#s)" opacity=".82895"/>
  <g transform="matrix(.14004 .01472 -.01472 .14004 168.6 326.23)">
   <path transform="translate(57.193 -698.4)" d="m520.88 444.59c-15.436 0-30.946 5.9771-42.719 17.75l-170.09 170.12-66.219-66.219c-23.536-23.536-61.871-23.536-85.406 0s-23.536 61.871 0 85.406l106.06 106.06c3.8202 3.8202 8.048 6.9793 12.5 9.5625v0.0312c0.10958 0.0741 0.2338 0.11419 0.34375 0.1875 0.12917 0.0738 0.24545 0.17723 0.375 0.25l0.0312-0.0312c23.453 15.375 55.156 12.687 75.688-7.8438l212.13-212.12c23.536-23.536 23.536-61.871 0-85.406-11.765-11.765-27.251-17.75-42.688-17.75z" fill="#4d4d4d"/>
   <path d="m613.41-228.7c-19.587-19.587-51.124-19.587-70.711 0l-177.46 177.46-73.561-73.561c-19.587-19.587-51.124-19.587-70.711 0s-19.587 51.124 0 70.711l106.07 106.07c3.342 3.3421 7.041 6.107 10.96 8.3085 19.466 13.166 46.023 11.12 63.286-6.143l212.13-212.13c19.587-19.587 19.587-51.124 0-70.711z" fill="#008000"/>
   <path d="m578.07-235.3c-10.71 0-21.404 4.0603-29.656 12.312l-174.5 174.53c-10.156 6.4646-8.7534 1.6544-17.312-1e-4l-70.625-70.625c-16.504-16.504-42.778-16.504-59.281 0-10.324 10.324-14.173 24.468-11.594 37.625 0.20474 1.0052 0.79624 1.9266 1.625 2.5312 38.471 28.505 85.738 45.344 136.91 45.344 115.01 0 210.46-84.955 229.78-196.75 0.40738-2.3298-1.5742-4.7831-3.9375-4.875 0.0147 5e-4 -0.46087-0.0937-1.4062-0.0937z" fill="url(#r)" filter="url(#v)" opacity=".85366"/>
   <path transform="translate(57.193 -698.4)" d="m329.53 684.59c-33.218 0-64.775 5.4841-93.344 15.25a4.4138 4.4138 0 0 0 -1.6875 7.3125l39.281 39.281c2.9651 2.9651 6.2549 5.4116 9.75 7.375l2.1562-3.8438 2.125-3.875 1.375 0.9375-2.7812 3.375-0.0312 0.0312-2.4375 3.625c17.281 11.688 40.83 9.9196 56.219-5.4688l50.562-50.562a4.4138 4.4138 0 0 0 -2.25 -7.4375c-18.823-3.8334-38.531-6-58.938-6z" fill="url(#q)" filter="url(#u)" opacity=".58537"/>
   <path d="m578.07-250.87c-14.671 0-29.415 5.6739-40.625 16.875h-0.0312l-170.06 170.13 2.0312 2.0312 169.88-169.94 0.1875-0.1875a2.8636 2.8636 0 0 0 0.0312 0c10.664-10.655 24.661-16.031 38.594-16.031 13.94 0 27.934 5.372 38.594 16.031 21.309 21.309 21.309 55.91 0 77.219l-212.12 212.12c-18.598 18.598-47.215 20.955-68.406 7.0625l-0.0625 0.0937-0.0625-0.0625c-9e-3 -7e-3 -0.0235 6e-3 -0.0312 0s6e-3 -0.0265 0-0.0312a2.8636 2.8636 0 0 0 -0.125 -0.0937c-0.0394-0.0293-0.0457-0.0198-0.0625-0.0312a2.8636 2.8636 0 0 0 -0.0312 -0.0312c-0.0205-0.0137-0.0481-0.0531-0.0625-0.0625a2.8636 2.8636 0 0 0 -0.125 -0.0625c-8e-3 -6e-3 -0.022 6e-3 -0.0312 0s-0.0217-0.0258-0.0312-0.0312c-0.11073-0.0628-0.26837-0.11911-0.4375-0.1875l0.0312-0.0625c-4.0583-2.3547-7.8773-5.2211-11.312-8.6562l-106.06-106.06c-21.309-21.309-21.309-55.91 0-77.219s55.91-21.309 77.219 0l66.219 66.219 2.0312-2.0312-66.219-66.219c-22.407-22.407-58.874-22.407-81.281 0s-22.407 58.874 0 81.281l106.06 106.06c3.6265 3.6265 7.6553 6.6272 11.906 9.0938l0.59375-1 0.0312-0.0625 0.75-1.3125c0.1504 0.0821 0.30038 0.18135 0.59375 0.34375l-1.5 2.3125c0.0525 0.0341-0.0333-0.0118 0.0312 0.0312a2.9391 2.9391 0 0 1 0.40625 0.1875c22.306 14.623 52.448 12.115 72-7.4375l212.13-212.12c22.407-22.407 22.407-58.874 0-81.281-11.206-11.206-25.948-16.875-40.625-16.875zm-244.72 320.31c0.0689 0.0305 0.16596 0.085 0.1875 0.0937-0.0625-0.0208-0.1875-0.0833-0.1875-0.0937z" fill="#fff" filter="url(#t)" opacity=".78862"/>
  </g>
  <g transform="matrix(.14004 .01472 -.01472 .14004 145.48 388.72)">
   <path transform="translate(57.193 -698.4)" d="m520.88 444.59c-15.436 0-30.946 5.9771-42.719 17.75l-170.09 170.12-66.219-66.219c-23.536-23.536-61.871-23.536-85.406 0s-23.536 61.871 0 85.406l106.06 106.06c3.8202 3.8202 8.048 6.9793 12.5 9.5625v0.0312c0.10958 0.0741 0.2338 0.11419 0.34375 0.1875 0.12917 0.0738 0.24545 0.17723 0.375 0.25l0.0312-0.0312c23.453 15.375 55.156 12.687 75.688-7.8438l212.13-212.12c23.536-23.536 23.536-61.871 0-85.406-11.765-11.765-27.251-17.75-42.688-17.75z" fill="#4d4d4d"/>
   <path d="m613.41-228.7c-19.587-19.587-51.124-19.587-70.711 0l-177.46 177.46-73.561-73.561c-19.587-19.587-51.124-19.587-70.711 0s-19.587 51.124 0 70.711l106.07 106.07c3.342 3.3421 7.041 6.107 10.96 8.3085 19.466 13.166 46.023 11.12 63.286-6.143l212.13-212.13c19.587-19.587 19.587-51.124 0-70.711z" fill="#008000"/>
   <path d="m578.07-235.3c-10.71 0-21.404 4.0603-29.656 12.312l-174.5 174.53c-10.156 6.4646-8.7534 1.6544-17.312-1e-4l-70.625-70.625c-16.504-16.504-42.778-16.504-59.281 0-10.324 10.324-14.173 24.468-11.594 37.625 0.20474 1.0052 0.79624 1.9266 1.625 2.5312 38.471 28.505 85.738 45.344 136.91 45.344 115.01 0 210.46-84.955 229.78-196.75 0.40738-2.3298-1.5742-4.7831-3.9375-4.875 0.0147 5e-4 -0.46087-0.0937-1.4062-0.0937z" fill="url(#r)" filter="url(#v)" opacity=".85366"/>
   <path transform="translate(57.193 -698.4)" d="m329.53 684.59c-33.218 0-64.775 5.4841-93.344 15.25a4.4138 4.4138 0 0 0 -1.6875 7.3125l39.281 39.281c2.9651 2.9651 6.2549 5.4116 9.75 7.375l2.1562-3.8438 2.125-3.875 1.375 0.9375-2.7812 3.375-0.0312 0.0312-2.4375 3.625c17.281 11.688 40.83 9.9196 56.219-5.4688l50.562-50.562a4.4138 4.4138 0 0 0 -2.25 -7.4375c-18.823-3.8334-38.531-6-58.938-6z" fill="url(#q)" filter="url(#u)" opacity=".58537"/>
   <path d="m578.07-250.87c-14.671 0-29.415 5.6739-40.625 16.875h-0.0312l-170.06 170.13 2.0312 2.0312 169.88-169.94 0.1875-0.1875a2.8636 2.8636 0 0 0 0.0312 0c10.664-10.655 24.661-16.031 38.594-16.031 13.94 0 27.934 5.372 38.594 16.031 21.309 21.309 21.309 55.91 0 77.219l-212.12 212.12c-18.598 18.598-47.215 20.955-68.406 7.0625l-0.0625 0.0937-0.0625-0.0625c-9e-3 -7e-3 -0.0235 6e-3 -0.0312 0s6e-3 -0.0265 0-0.0312a2.8636 2.8636 0 0 0 -0.125 -0.0937c-0.0394-0.0293-0.0457-0.0198-0.0625-0.0312a2.8636 2.8636 0 0 0 -0.0312 -0.0312c-0.0205-0.0137-0.0481-0.0531-0.0625-0.0625a2.8636 2.8636 0 0 0 -0.125 -0.0625c-8e-3 -6e-3 -0.022 6e-3 -0.0312 0s-0.0217-0.0258-0.0312-0.0312c-0.11073-0.0628-0.26837-0.11911-0.4375-0.1875l0.0312-0.0625c-4.0583-2.3547-7.8773-5.2211-11.312-8.6562l-106.06-106.06c-21.309-21.309-21.309-55.91 0-77.219s55.91-21.309 77.219 0l66.219 66.219 2.0312-2.0312-66.219-66.219c-22.407-22.407-58.874-22.407-81.281 0s-22.407 58.874 0 81.281l106.06 106.06c3.6265 3.6265 7.6553 6.6272 11.906 9.0938l0.59375-1 0.0312-0.0625 0.75-1.3125c0.1504 0.0821 0.30038 0.18135 0.59375 0.34375l-1.5 2.3125c0.0525 0.0341-0.0333-0.0118 0.0312 0.0312a2.9391 2.9391 0 0 1 0.40625 0.1875c22.306 14.623 52.448 12.115 72-7.4375l212.13-212.12c22.407-22.407 22.407-58.874 0-81.281-11.206-11.206-25.948-16.875-40.625-16.875zm-244.72 320.31c0.0689 0.0305 0.16596 0.085 0.1875 0.0937-0.0625-0.0208-0.1875-0.0833-0.1875-0.0937z" fill="#fff" filter="url(#t)" opacity=".78862"/>
  </g>
  <g transform="matrix(.60182 .79864 -.79864 .60182 170.32 148.3)">
   <path d="m242.38 143c-3.3122 0-6 2.6878-6 6v19h-19c-3.3122 0-6 2.6878-6 6v4.1562c0 3.3122 2.6878 6 6 6h19v19c0 3.3122 2.6878 6 6 6h4.1562c3.3122 0 6-2.6878 6-6v-19h19c3.3122 0 6-2.6878 6-6v-4.1562c0-3.3122-2.6878-6-6-6h-19v-19c0-3.3122-2.6878-6-6-6h-4.1562z" fill="#808080" opacity=".79592"/>
   <path d="m242.38 144.5c-2.4994 0-4.5 2.0006-4.5 4.5v20a0.50431 0.50431 0 0 1 -0.5 0.5h-20c-2.4994 0-4.5 2.0006-4.5 4.5v4.1562c0 2.4994 2.0006 4.5 4.5 4.5h20a0.50431 0.50431 0 0 1 0.5 0.5v20c0 2.4994 2.0006 4.5 4.5 4.5h4.1562c2.4994 0 4.5-2.0006 4.5-4.5v-20a0.50431 0.50431 0 0 1 0.5 -0.5h20c2.4994 0 4.5-2.0006 4.5-4.5v-4.1562c0-2.4994-2.0006-4.5-4.5-4.5h-20a0.50431 0.50431 0 0 1 -0.5 -0.5v-20c0-2.4994-2.0006-4.5-4.5-4.5h-4.1562z" fill="#f00"/>
   <path d="m242.38 143.5c-3.0442 0-5.5 2.4558-5.5 5.5v19a0.49532 0.49532 0 0 1 -0.5 0.5h-19c-3.0442 0-5.5 2.4558-5.5 5.5v4.1562c0 3.0442 2.4558 5.5 5.5 5.5h19a0.49532 0.49532 0 0 1 0.5 0.5v19c0 3.0442 2.4558 5.5 5.5 5.5h4.1562c3.0442 0 5.5-2.4558 5.5-5.5v-19a0.49532 0.49532 0 0 1 0.5 -0.5h19c3.0442 0 5.5-2.4558 5.5-5.5v-4.1562c0-3.0442-2.4558-5.5-5.5-5.5h-19a0.49532 0.49532 0 0 1 -0.5 -0.5v-19c0-3.0442-2.4558-5.5-5.5-5.5h-4.1562zm0 0.5h4.1562c2.779 0 5 2.221 5 5v19a0.98566 0.98566 0 0 0 1 1h19c2.779 0 5 2.221 5 5v4.1562c0 2.779-2.221 5-5 5h-19a0.98566 0.98566 0 0 0 -1 1v19c0 2.779-2.221 5-5 5h-4.1562c-2.779 0-5-2.221-5-5v-19a0.98566 0.98566 0 0 0 -1 -1h-19c-2.779 0-5-2.221-5-5v-4.1562c0-2.779 2.221-5 5-5h19a0.98566 0.98566 0 0 0 1 -1v-19c0-2.779 2.221-5 5-5z" fill="#fff" filter="url(#l)" opacity=".70614"/>
   <path d="m268.21875,175.5c-6.48158,0-12.41649,2.47759-17.09375,6.5625 .12314-.0247.23845-.0429.40625-.0937h20c2.12534,0 3.8125-1.68716 3.8125-3.8125v-1.625c-2.27132-.66341-4.65961-1.03125-7.125-1.03125zm-17.84375,7.21875c-5.75325,5.39972-9.40625,13.36762-9.40625,22.25 0,.5933.0305,1.16539.0625,1.75 .41747.15476.86849.25 1.34375.25h4.15625c2.12534,0 3.8125-1.68716 3.8125-3.8125v-20c.009-.20397.0135-.30983.0312-.4375z" fill="url(#g)" filter="url(#b)" opacity=".61842"/>
   <path d="m242.38 145.19c-2.1253 0-3.8125 1.6872-3.8125 3.8125v20c0.24311 1.2963-0.50326 0.96199-1.1875 1.1875h-20c-2.1253 0-3.8125 1.6872-3.8125 3.8125v4.1562c0 1.3537 0.70378 2.5121 1.75 3.1875 0.37448 9e-3 0.74785 0.0312 1.125 0.0312 14.937 0 27.829-7.2543 33.906-17.75v-14.625c0-2.1253-1.6872-3.8125-3.8125-3.8125h-4.1562z" fill="url(#f)" filter="url(#b)" opacity=".61842"/>
  </g>
  <g transform="matrix(.58779 .80902 -.80902 .58779 153.36 212.86)">
   <path d="m242.38 143c-3.3122 0-6 2.6878-6 6v19h-19c-3.3122 0-6 2.6878-6 6v4.1562c0 3.3122 2.6878 6 6 6h19v19c0 3.3122 2.6878 6 6 6h4.1562c3.3122 0 6-2.6878 6-6v-19h19c3.3122 0 6-2.6878 6-6v-4.1562c0-3.3122-2.6878-6-6-6h-19v-19c0-3.3122-2.6878-6-6-6h-4.1562z" fill="#808080" opacity=".79592"/>
   <path d="m242.38 144.5c-2.4994 0-4.5 2.0006-4.5 4.5v20a0.50431 0.50431 0 0 1 -0.5 0.5h-20c-2.4994 0-4.5 2.0006-4.5 4.5v4.1562c0 2.4994 2.0006 4.5 4.5 4.5h20a0.50431 0.50431 0 0 1 0.5 0.5v20c0 2.4994 2.0006 4.5 4.5 4.5h4.1562c2.4994 0 4.5-2.0006 4.5-4.5v-20a0.50431 0.50431 0 0 1 0.5 -0.5h20c2.4994 0 4.5-2.0006 4.5-4.5v-4.1562c0-2.4994-2.0006-4.5-4.5-4.5h-20a0.50431 0.50431 0 0 1 -0.5 -0.5v-20c0-2.4994-2.0006-4.5-4.5-4.5h-4.1562z" fill="#f00"/>
   <path d="m242.38 143.5c-3.0442 0-5.5 2.4558-5.5 5.5v19a0.49532 0.49532 0 0 1 -0.5 0.5h-19c-3.0442 0-5.5 2.4558-5.5 5.5v4.1562c0 3.0442 2.4558 5.5 5.5 5.5h19a0.49532 0.49532 0 0 1 0.5 0.5v19c0 3.0442 2.4558 5.5 5.5 5.5h4.1562c3.0442 0 5.5-2.4558 5.5-5.5v-19a0.49532 0.49532 0 0 1 0.5 -0.5h19c3.0442 0 5.5-2.4558 5.5-5.5v-4.1562c0-3.0442-2.4558-5.5-5.5-5.5h-19a0.49532 0.49532 0 0 1 -0.5 -0.5v-19c0-3.0442-2.4558-5.5-5.5-5.5h-4.1562zm0 0.5h4.1562c2.779 0 5 2.221 5 5v19a0.98566 0.98566 0 0 0 1 1h19c2.779 0 5 2.221 5 5v4.1562c0 2.779-2.221 5-5 5h-19a0.98566 0.98566 0 0 0 -1 1v19c0 2.779-2.221 5-5 5h-4.1562c-2.779 0-5-2.221-5-5v-19a0.98566 0.98566 0 0 0 -1 -1h-19c-2.779 0-5-2.221-5-5v-4.1562c0-2.779 2.221-5 5-5h19a0.98566 0.98566 0 0 0 1 -1v-19c0-2.779 2.221-5 5-5z" fill="#fff" filter="url(#l)" opacity=".70614"/>
   <path d="m268.21875,175.5c-6.48158,0-12.41649,2.47759-17.09375,6.5625 .12314-.0247.23845-.0429.40625-.0937h20c2.12534,0 3.8125-1.68716 3.8125-3.8125v-1.625c-2.27132-.66341-4.65961-1.03125-7.125-1.03125zm-17.84375,7.21875c-5.75325,5.39972-9.40625,13.36762-9.40625,22.25 0,.5933.0305,1.16539.0625,1.75 .41747.15476.86849.25 1.34375.25h4.15625c2.12534,0 3.8125-1.68716 3.8125-3.8125v-20c.009-.20397.0135-.30983.0312-.4375z" fill="url(#g)" filter="url(#b)" opacity=".61842"/>
   <path d="m242.38 145.19c-2.1253 0-3.8125 1.6872-3.8125 3.8125v20c0.24311 1.2963-0.50326 0.96199-1.1875 1.1875h-20c-2.1253 0-3.8125 1.6872-3.8125 3.8125v4.1562c0 1.3537 0.70378 2.5121 1.75 3.1875 0.37448 9e-3 0.74785 0.0312 1.125 0.0312 14.937 0 27.829-7.2543 33.906-17.75v-14.625c0-2.1253-1.6872-3.8125-3.8125-3.8125h-4.1562z" fill="url(#f)" filter="url(#b)" opacity=".61842"/>
  </g>
  <g transform="matrix(.57358 .81915 -.81915 .57358 138.49 275.03)">
   <path d="m242.38 143c-3.3122 0-6 2.6878-6 6v19h-19c-3.3122 0-6 2.6878-6 6v4.1562c0 3.3122 2.6878 6 6 6h19v19c0 3.3122 2.6878 6 6 6h4.1562c3.3122 0 6-2.6878 6-6v-19h19c3.3122 0 6-2.6878 6-6v-4.1562c0-3.3122-2.6878-6-6-6h-19v-19c0-3.3122-2.6878-6-6-6h-4.1562z" fill="#808080" opacity=".79592"/>
   <path d="m242.38 144.5c-2.4994 0-4.5 2.0006-4.5 4.5v20a0.50431 0.50431 0 0 1 -0.5 0.5h-20c-2.4994 0-4.5 2.0006-4.5 4.5v4.1562c0 2.4994 2.0006 4.5 4.5 4.5h20a0.50431 0.50431 0 0 1 0.5 0.5v20c0 2.4994 2.0006 4.5 4.5 4.5h4.1562c2.4994 0 4.5-2.0006 4.5-4.5v-20a0.50431 0.50431 0 0 1 0.5 -0.5h20c2.4994 0 4.5-2.0006 4.5-4.5v-4.1562c0-2.4994-2.0006-4.5-4.5-4.5h-20a0.50431 0.50431 0 0 1 -0.5 -0.5v-20c0-2.4994-2.0006-4.5-4.5-4.5h-4.1562z" fill="#f00"/>
   <path d="m242.38 143.5c-3.0442 0-5.5 2.4558-5.5 5.5v19a0.49532 0.49532 0 0 1 -0.5 0.5h-19c-3.0442 0-5.5 2.4558-5.5 5.5v4.1562c0 3.0442 2.4558 5.5 5.5 5.5h19a0.49532 0.49532 0 0 1 0.5 0.5v19c0 3.0442 2.4558 5.5 5.5 5.5h4.1562c3.0442 0 5.5-2.4558 5.5-5.5v-19a0.49532 0.49532 0 0 1 0.5 -0.5h19c3.0442 0 5.5-2.4558 5.5-5.5v-4.1562c0-3.0442-2.4558-5.5-5.5-5.5h-19a0.49532 0.49532 0 0 1 -0.5 -0.5v-19c0-3.0442-2.4558-5.5-5.5-5.5h-4.1562zm0 0.5h4.1562c2.779 0 5 2.221 5 5v19a0.98566 0.98566 0 0 0 1 1h19c2.779 0 5 2.221 5 5v4.1562c0 2.779-2.221 5-5 5h-19a0.98566 0.98566 0 0 0 -1 1v19c0 2.779-2.221 5-5 5h-4.1562c-2.779 0-5-2.221-5-5v-19a0.98566 0.98566 0 0 0 -1 -1h-19c-2.779 0-5-2.221-5-5v-4.1562c0-2.779 2.221-5 5-5h19a0.98566 0.98566 0 0 0 1 -1v-19c0-2.779 2.221-5 5-5z" fill="#fff" filter="url(#l)" opacity=".70614"/>
   <path d="m268.21875,175.5c-6.48158,0-12.41649,2.47759-17.09375,6.5625 .12314-.0247.23845-.0429.40625-.0937h20c2.12534,0 3.8125-1.68716 3.8125-3.8125v-1.625c-2.27132-.66341-4.65961-1.03125-7.125-1.03125zm-17.84375,7.21875c-5.75325,5.39972-9.40625,13.36762-9.40625,22.25 0,.5933.0305,1.16539.0625,1.75 .41747.15476.86849.25 1.34375.25h4.15625c2.12534,0 3.8125-1.68716 3.8125-3.8125v-20c.009-.20397.0135-.30983.0312-.4375z" fill="url(#g)" filter="url(#b)" opacity=".61842"/>
   <path d="m242.38 145.19c-2.1253 0-3.8125 1.6872-3.8125 3.8125v20c0.24311 1.2963-0.50326 0.96199-1.1875 1.1875h-20c-2.1253 0-3.8125 1.6872-3.8125 3.8125v4.1562c0 1.3537 0.70378 2.5121 1.75 3.1875 0.37448 9e-3 0.74785 0.0312 1.125 0.0312 14.937 0 27.829-7.2543 33.906-17.75v-14.625c0-2.1253-1.6872-3.8125-3.8125-3.8125h-4.1562z" fill="url(#f)" filter="url(#b)" opacity=".61842"/>
  </g>
  <path d="m253.25 299.61c-2.0545-0.21593-4.2028 0.36162-5.9375 1.7652l-4e-3 -4.6e-4 -26.319 21.321 0.25456 0.31435 26.29-21.298 0.029-0.0235a0.40322 0.40322 0 0 0 4e-3 4.6e-4c1.6502-1.3352 3.6895-1.882 5.6406-1.677s3.8328 1.1634 5.1687 2.813c2.6705 3.2977 2.1612 8.1432-1.1366 10.814l-32.828 26.584c-2.8782 2.3307-6.9204 2.2395-9.6835-0.0178l-0.0101 0.0122-8e-3 -0.01-4e-3 -4.6e-4c-7.6e-4 -7.9e-4 1e-3 -4e-3 4.6e-4 -4e-3a0.40322 0.40322 0 0 0 -0.0161 -0.015c-5e-3 -5e-3 -6e-3 -3e-3 -8e-3 -5e-3a0.40322 0.40322 0 0 0 -4e-3 -5e-3l-8e-3 -0.01a0.40322 0.40322 0 0 0 -0.0166 -0.0106l-4e-3 -4.6e-4 -4e-3 -5e-3 -0.0585-0.0327 5e-3 -8e-3c-0.53366-0.38948-1.0263-0.8471-1.4568-1.3787l-13.292-16.414c-2.6704-3.2977-2.1612-8.1432 1.1366-10.814s8.1432-2.1612 10.814 1.1366l8.2986 10.248 0.31435-0.25455-8.2986-10.248c-2.8081-3.4677-7.9148-4.0044-11.383-1.1964s-4.0044 7.9148-1.1964 11.383l13.292 16.414c0.45447 0.56123 0.97449 1.0408 1.5335 1.4487l0.0979-0.1313 5e-3 -8e-3 0.12435-0.17277 0.0781 0.0569-0.2441 0.30177c7e-3 6e-3 -4e-3 -2e-3 4e-3 5e-3a0.41385 0.41385 0 0 1 0.0541 0.0322c2.9084 2.3761 7.1664 2.4685 10.192 0.0182l32.828-26.584c3.4677-2.8081 4.0044-7.9148 1.1964-11.383-1.4043-1.7342-3.3854-2.7451-5.4407-2.9611zm-38.985 41.254 0.0249 0.0159c-8e-3 -4e-3 -0.025-0.0144-0.0249-0.0159z" fill="#fff"/>
  <g transform="translate(3.0375e-6 -2.4923e-6)" fill="none" stroke="#000" stroke-width="5">
   <path d="m376.03 473.69-15.381 61.689 141.49 15.621"/>
   <path d="m458.12 620.56-76.151-10.974 16.176-70.064"/>
  </g>
  <path d="m459.55 600.65 143.44 19.139c4.7553 0.63449 7.0698 5.0398 6.4441 9.993l-3.9243 31.064c-0.94648 7.4922-8.1852 8.2864-11.626 7.7537l-141.62-21.923c-6.1077-0.94553-8.6884-6.0582-7.8339-10.296l5.6342-27.943c1.2675-6.2861 4.9067-8.3984 9.482-7.788z" filter="url(#av)"/>
  <path d="m513.49 531.89 137.5 13.724c10.785 1.0765 12.362 10.131 12.181 11.854l-3.2106 30.547c-0.4315 4.1054-5.5181 8.8336-13.064 7.9204l-143.04-17.309c-1.9826-0.23993-12.677-2.7864-11.023-11.711l4.3394-23.413c1.1661-6.2919 4.3636-12.805 16.315-11.612z" filter="url(#aw)"/>
  <path d="m346.97 445.38 109.94 7.3024c5.0813 0.3375 11.061 3.8122 9.5457 11.096l-5.5428 26.648c-1.1689 5.6199-8.1038 8.3092-11.405 8.0204l-113.78-9.954c-6.9422-0.60737-10.012-5.3127-8.7386-9.9356l7.6159-27.649c1.6041-5.8236 9.0943-5.745 12.357-5.5283z" filter="url(#ax)"/>
  <path transform="matrix(.99905,.04362,-.04362,.99905,4,4)" d="m358.18 356.49 197.41-2.0674c5.7716-0.0604 10.628 3.8808 9.6717 11.454l-2.859 22.631c-0.96281 7.6214-6.3424 13.898-13.652 13.821l-200.68-2.1016c-9.0264-0.0945-9.3379-7.3016-8.2662-11.782l5.1093-21.364c2.1243-8.8826 6.0542-10.516 13.264-10.592z" filter="url(#ay)"/>
  <path d="m348.28 306.36h307.11c4.871 0 11.168 0.92661 9.93 11.465l-3.3941 28.892c-1.063 9.0485-5.0936 9.9747-11.605 9.8383l-314.22-6.5819c-9.792-0.20511-11.415-5.4448-9.6794-11.304l5.8604-19.785c2.897-9.78 9.2101-12.525 15.99-12.525z" filter="url(#az)"/>
  <path d="m495.19 302.38-9.75 46.812 160.91 3.375c6.5111 0.13639 10.531-0.79527 11.594-9.8438l3.375-28.906c1.238-10.539-5.0352-11.438-9.9062-11.438h-156.22z" fill="url(#ai)" stroke="#2d1e2d" stroke-linecap="round" stroke-linejoin="round"/>
  <path d="m400.97 373.72-11.125 44.531 140.84 7.625c7.2989 0.39529 12.924-5.6466 14.219-13.219l3.8438-22.469c1.2862-7.5248-3.3875-11.684-9.1562-11.875l-138.62-4.5938z" fill="url(#ah)" stroke="#2d1e2d" stroke-linecap="round" stroke-linejoin="round"/>
  <path d="m342.97 441.38 109.94 7.3024c5.0813 0.3375 11.061 3.8122 9.5457 11.096l-5.5428 26.648c-1.1689 5.6199-8.1038 8.3092-11.405 8.0204l-113.78-9.954c-6.9422-0.60736-10.012-5.3127-8.7386-9.9356l7.6159-27.649c1.6041-5.8236 9.0942-5.745 12.357-5.5283z" fill="url(#ao)" stroke="#2d1e2d" stroke-linecap="round" stroke-linejoin="round"/>
  <path d="m509.49 527.89 137.5 13.724c10.785 1.0765 12.362 10.131 12.181 11.854l-3.2106 30.547c-0.4315 4.1054-5.5181 8.8336-13.064 7.9204l-143.04-17.309c-1.9826-0.23993-12.677-2.7863-11.023-11.711l4.3394-23.413c1.1661-6.2919 4.3636-12.805 16.315-11.612z" fill="url(#an)" stroke="#2d1e2d" stroke-linecap="round" stroke-linejoin="round"/>
  <path d="m455.55 596.65 143.44 19.139c4.7553 0.63449 7.0698 5.0399 6.4441 9.9931l-3.9243 31.064c-0.94648 7.4922-8.1852 8.2864-11.626 7.7537l-141.62-21.923c-6.1077-0.94553-8.6884-6.0582-7.8339-10.296l5.6342-27.943c1.2675-6.2861 4.9067-8.3984 9.482-7.788z" fill="url(#am)" stroke="#2d1e2d" stroke-linecap="round" stroke-linejoin="round"/>
  <path d="m344.28 302.38c-6.7801 0-13.103 2.72-16 12.5l-5.8438 19.812c-1.7356 5.8593-0.10446 11.076 9.6875 11.281l153.34 3.2188 9.7188-46.812h-150.91z" fill="url(#ak)" stroke="#2d1e2d" stroke-linecap="round" stroke-linejoin="round"/>
  <path d="m344.28 308.09c-2.6259 0-4.6558 0.50684-6.25 1.5938s-3.1133 2.8697-4.2812 6.8125l-5.5625 18.812c41.278 3.8418 99.31 3.1951 174.5-11.688 74.053-14.658 121.92-12.431 152.34-5.3125l0.59375-5.1562c0.48631-4.1398-0.21435-4.2986-0.4375-4.4688s-1.6973-0.59375-3.7812-0.59375h-307.12z" fill="url(#al)" filter="url(#au)" opacity=".82041"/>
  <path d="m340.97 371.75c-6.3862-4e-3 -10.053 1.7986-12.406 10.031l-6.0312 21.125c-1.266 4.4298-1.2637 11.637 7.75 12.125l59.594 3.2188 11.062-44.531-58.656-1.9375c-0.4504-0.0149-0.88675-0.031-1.3125-0.0312z" fill="url(#aj)" stroke="#2d1e2d" stroke-linecap="round" stroke-linejoin="round"/>
  <path d="m340.03 377.88c-1.7487 0.0802-2.6243 0.3731-3.0625 0.65625-0.58427 0.37753-1.5188 1.2544-2.5625 4.9062h0.0312l-6.0312 21.125a6.0892 6.0892 0 0 1 -0.0312 0c-0.13378 0.46808-0.20359 0.97279-0.25 1.4688 30.083 2.8613 69.428 1.6676 117.59-10.094 42.503-10.379 74.054-11.201 97.156-7.8125 0.11024-1.5814-0.30419-2.211-0.6875-2.6562-0.45889-0.53301-1.3046-1.0135-2.7812-1.0625l-197.31-6.5312c-0.78867-0.0262-1.4796-0.0267-2.0625 0z" fill="url(#ag)" filter="url(#at)" opacity=".89388"/>
  <path d="m341.44 445.69c-1.3335-0.0198-2.9107 0.0747-4.125 0.40625-1.6191 0.44205-2.1298 0.70706-2.4688 1.9375l-6 21.75c27.06 6.781 62.405 12.912 72.594 1.875 9.6381-10.441 35.071-9.5871 55.5-6.8438h0.0312l1.2188-5.9062c3e-3 -0.0143-3e-3 -0.0171 0-0.0312 0.47989-2.3461-0.0465-3.1412-1.0312-4.0625-0.99069-0.9268-2.8664-1.6707-4.5312-1.7812l-109.94-7.2813c-0.3638-0.0242-0.80549-0.0559-1.25-0.0625z" fill="url(#af)" filter="url(#as)" opacity=".73061"/>
  <path d="m505.78 533.34c-2.6409 0.1143-3.8473 0.84555-4.6875 1.625-1.1202 1.0393-1.927 2.9452-2.4062 5.5312l-3.0938 16.625c20.576 9.4489 51.086 17.548 78.688 1.6562 26.837-15.451 57.357-8.6676 78.688 0.0312l0.59375-5.5938c-8e-3 -0.14543-0.0471-0.45341-0.125-0.75-0.15591-0.59318-0.43603-1.3798-0.90625-2.0938-0.94044-1.428-2.2151-2.8004-6.0938-3.1875l-137.5-13.719c-1.2321-0.12298-2.276-0.1631-3.1562-0.125z" fill="url(#ae)" filter="url(#ar)" opacity=".82041"/>
  <path d="m453.94 599.22c-1.1494 0.0127-2.0128 0.31734-2.75 0.875-0.983 0.74354-1.9215 2.1298-2.4688 4.8438l-5.25 26.156c26.481 7.1882 59.66 11.478 85.094-0.875 24.75-12.021 52.299-8.3019 73.812-1.4688l0.40625-3.3125c0.24852-1.9672-0.12448-3.6962-0.84375-4.875s-1.6547-1.908-3.2812-2.125l-143.47-19.125c-0.44819-0.0598-0.86686-0.098-1.25-0.0937z" fill="url(#ad)" filter="url(#aq)" opacity=".62449"/>
  <path transform="matrix(.56837 0 0 .35978 -287.3 475.92)" d="m710 860.36a109 37 0 1 1 -218 0 109 37 0 1 1 218 0z" filter="url(#h)" opacity=".7"/>
  <path transform="matrix(.56837 0 0 .35978 -142.08 473.21)" d="m710 860.36a109 37 0 1 1 -218 0 109 37 0 1 1 218 0z" filter="url(#h)" opacity=".7"/>
  <path transform="matrix(.56837 0 0 .35978 -215.88 488.19)" d="m710 860.36a109 37 0 1 1 -218 0 109 37 0 1 1 218 0z" filter="url(#h)" opacity=".7"/>
  <path d="m-30.64 566.54c-5.673 0-10.24 4.567-10.24 10.24v104.51c0 5.673 4.567 10.24 10.24 10.24h0.832c5.673 0 10.24-4.567 10.24-10.24v-60.816h2.48v155.98c0 5.673 4.567 10.24 10.24 10.24h20.48c5.673 0 10.24-4.567 10.24-10.24v-92.896h5.856v92.896c0 5.673 4.567 10.24 10.24 10.24h20.48c5.673 0 10.24-4.567 10.24-10.24v-155.98h2.48v60.816c0 5.673 4.567 10.24 10.24 10.24h0.832c5.673 0 10.24-4.567 10.24-10.24v-104.51c0-5.673-4.567-10.24-10.24-10.24h-114.88z" fill="url(#ac)"/>
  <path transform="matrix(.512 0 0 .512 -284.78 406.91)" d="m496.375,321.8125c-2.66913,0-5.31416.90791-7.1875,2.78125s-2.78125,4.51837-2.78125,7.1875v65.34375 138.78125c0,2.66913.90791,5.31416 2.78125,7.1875s4.51837,2.78125 7.1875,2.78125h1.625c2.66913,0 5.31416-.90791 7.1875-2.78125s2.78125-4.51837 2.78125-7.1875v-116.15625l1.5625-.0312 .96875-1.15625 .5625.46875 .53125-.84375 .15625-.40625c.00011-.00032.13941-.41859.15625-.5 .0243-.11744-.007-.0825 0-.125h.0625c.003-.0501-.00038-.0521 0-.0625 .002-.0414-.00036-.0496 0-.0625 .00038-.0437-.00056-.0989 0-.15625 7e-005-.007-7e-005-.0225 0-.0312s-.00021-.0227 0-.0312-.00086-.0228 0-.0312c.008-.0525-.004-.0625 0-.0937 .005-.0257-.003-.0152 0-.0312 .009-.0512.0303-.0849.0312-.0937s-.001-.0212 0-.0312-.002-.02 0-.0312-.001-.0205 0-.0312-.00023-.0196 0-.0312-.00018-.0174 0-.0312c.004-.0324.0264-.057.0312-.0937 .004-.0238-.005-.0599 0-.0937s.0257-.0435.0312-.0625c.004-.0308-.005-.0497 0-.0937s.0278-.0774.0312-.0937c.004-.0282-.005-.0498 0-.0937 .002-.0147-.002-.014 0-.0312 .001-.005-.002-.0253 0-.0312 .00052-.003-.00058-.029 0-.0312 .003-.0112.0284-.0204.0312-.0312s-.00092-.0223 0-.0312c.002-.0178-.003-.0345 0-.0625 .002-.01.0295-.0241.0312-.0312s-.002-.024 0-.0312-.002-.0257 0-.0312c.002-.0249-.00091-.0519 0-.0625s.0275-.0176.0312-.0312c.002-.0153-.003-.0127 0-.0312 .0133-.0255-.01-.0117 0-.0312 .003-.008.0311-.0299.0312-.0312 .005-.0217-.007-.0346 0-.0625h.0312c.004-.015-.004-.0464 0-.0625 .007-.0183.0255-.0477.0312-.0625s-.005-.0188 0-.0312l.0312-.0625c.005-.0115-.004-.02 0-.0312 .005-.011.0271-.0212.0312-.0312s-.002-.0226 0-.0312l.0312-.0625c.004-.009-.004-.0224 0-.0312 .005-.0126.0264-.0193.0312-.0312s-.003-.0232 0-.0312c.006-.0101-.006-.0223 0-.0312h.0312l.0312-.0625c.003-.008-.003-.0236 0-.0312 .0305-.0604.0754-.11879.0625-.0937 .002-.007-.004-.0196 0-.0312s-.003-.0243 0-.0312c.007-.012.0257-.021.0312-.0312 .00016-.00035-.00047-.0297 0-.0312s-.00078-.0285 0-.0312c.01-.0186.0508-.0409.0625-.0625 .019-.041.0428-.11318.0625-.15625l.0312-.0312c.00073-.001-.001-.0291 0-.0312s.0285.005.0312,0-3e-005-.0312 0-.0312-.00068-.0298 0-.0312l.0312-.0312 .0312-.0312c.006-.0136-.009-.01 0-.0312l.0312-.0625c.0153-.023.0495-.0426.0625-.0625l.0312-.0625c.002-.003-.001-.0292 0-.0312 .0125-.0133.0253-.0249.0312-.0312l.0312-.0625 .0312-.0312c.0119-.0155.0197-.0161.0312-.0312 .007-.008-.006-.0242 0-.0312s.018.023.0312,0c.004-.005-.003-.0268 0-.0312h.0312c.01-.0123.0199-.0481.0312-.0625s-.008-.0229 0-.0312c.0379-.0416.0876-.0548.0937-.0625s-.004-.0262 0-.0312 .00033-.031 0-.0312h.0312l.0312-.0312c.005-.006-.005-.0256 0-.0312 .0225-.0249.0254-.0246.0312-.0312 .003-.003-.002-.0293 0-.0312h.0312c.004-.005-.004-.0266 0-.0312h.0312c.01-.0129.0198-.0474.0312-.0625l.0312-.0312 .0312-.0312 .0312-.0312 .0312-.0312 .0312-.0312c.0185-.0175.0221-.0537.0312-.0625l.0312-.0312 .0312-.0312c.008-.005.0248.004.0312,0l.0312-.0312c.001-.001-.001-.0299 0-.0312l.0312-.0312h.0312l.0312-.0312c.005-.005-.005-.0268 0-.0312l.0312-.0312h.0312c.0158-.0127.0181-.0205.0312-.0312 .0183-.0132.0167-.0206.0312-.0312l.0312-.0312 .0312-.0312 .0312-.0312c.006-.005.025.005.0312,0l.0312-.0312c.009-.009-.01-.0212 0-.0312h.0312l.0312-.0312c.01-.007.0223.007.0312,0 .0209-.015.0227-.0249.0312-.0312s.0244-.026.0312-.0312c.005-.004.0255.005.0312,0 .0254-.0199.0282-.0667.0625-.0937 .0241-.0141.015.01.0312,0 .0144-.0114.0502-.0217.0625-.0312 .003-.003-.003-.0286 0-.0312h.0312c.003-.003-.004-.0285 0-.0312 .0224-.0171.0372-.0119.0625-.0312 .009-.007.0233-.0253.0312-.0312l.0625-.0312 .0312-.0312c.007-.007.0231.008.0312,0l.0625-.0312c.0199-.013.0395-.0472.0625-.0625 .0261-.0174.0533-.004.0937-.0312 .01-.007.0224-.0255.0312-.0312l.0312-.0312c.003-.001.0539.006.0625,0-.00061.00041.008-.0233 0-.0312l.0625-.0312c.043-.0197.11533-.0435.15625-.0625s.0331-.0488.0625-.0625l.0937-.0312 .0312-.0312h.0312c.003-.005.0449-.007.0937-.0312 .0151-.008.0162.008.0312,0 .0154-.008.0499-.0251.0625-.0312 .003-.002-.003-.0297 0-.0312h.0312 .0312 .0312c0,0 8e-005-.0311 0-.0312 .0196-.006.0737-.025.0937-.0312 .006-.003.0787-.0218.0937-.0312l.0625-.0312 .0937-.0312h.0625c.002-.00046-.002-.0308 0-.0312 .0151-.004.0452.005.0625,0s.008-.0226.0312-.0312h.0312l.0625-.0312h.0625 .0312 .0312c.007-.002.0214-.0288.0312-.0312h.0312 .0625c.0108-.003.02-.0282.0312-.0312h.0312 .0312 .0312 .0625 .0312c.0165-.003.0545-.0229.0937-.0312h.0625 .0312c.028-.004.0381-.0276.0625-.0312 .0338-.005.0703.004.0937,0 .0304-.003.0588-.027.0937-.0312s.0548.005.0937,0h.0312 .0312c.0157-.002.0456-.0292.0625-.0312 .0399-.005.0688.013.15625,0h.0312 .0312 .1875 .0625 .0625 .21875l.65625-.15625-.0312-.15625c.0881-.0364.18747-.0625.1875-.0625l.84375-.53125c0,0-.17493-.22922-.21875-.28125h1.5l-.25.28125 .84375.53125 .40625.15625c.00032.00011.41859.13941.5.15625 .11744.0243.0825-.007.125,0 .00026.002-.00039.0625 0,.0625h.0625 .0625 .15625 .0312 .0312 .0312c.0525.008.0625-.004.0937,0 .0257.005.0153-.003.0312,0 .0279.004.0706.0285.0937.0312h.0312 .0312 .0625 .0312c.0324.004.057.0264.0937.0312h.0937l.15625.0312 .0937.0312c.0282.004.0498-.005.0937,0h.0312 .0312 .0312c.0153.004.0171.0276.0312.0312h.0312c.0195.005.0477-.004.0625,0s.0241.0295.0312.0312h.0625c.0133.004.0445-.005.0625,0 .012.003.0176.0275.0312.0312h.0312 .0312c.008.003.0299.0311.0312.0312 .0173.005.0474-.004.0625,0 .002.00047-.002.0308 0,.0312h.0625 .0312c.01.004.0225.0279.0312.0312 .0146.006.0187-.005.0312,0l.0937.0312c.015.006.0174.0258.0312.0312h.0312 .0312c.007.002.0241.029.0312.0312h.0312c.0126.005.0193.0264.0312.0312h.0312 .0312c.003.001-.003.0299 0,.0312l.0625.0312c.015.008.0161-.008.0312,0 .0604.0305.11879.0754.0937.0625 .019.0107.0477-.008.0625,0h.0312l.0625.0312c.0294.0137.0272.0461.0625.0625 .0592.032.11798.042.15625.0625 .0256.0196.0164.0203.0312.0312h.0312c.002.001-.005.0285 0,.0312h.0312 .0312c.011.005.014.0228.0312.0312l.0312.0312c.0106.007.0207-.007.0312,0 .0274.018.0418.0177.0625.0312 .023.0153.0426.0495.0625.0625l.0625.0312c.008.005.0239-.005.0312,0l.0312.0312 .0625.0312 .0312.0312 .0625.0312 .0312.0312c.003.002-.004.0291 0,.0312l.0625.0312c.008.006.0235-.006.0312,0 .0343.027.0371.0738.0625.0937h.0312 .0312c.006.005-.005.0267 0,.0312l.0312.0312c.009.007.0216-.007.0312,0s.0138.0193.0312.0312h.0312c.004.003-.004.0285 0,.0312 .005.005.0255-.005.0312,0 .004.003-.004.0285 0,.0312l.0625.0312c.0305.0256.0543.0615.0937.0937l.0312.0312 .0625.0312 .0312.0312 .0312.0312 .0312.0312c.0138.0155.0217.0206.0312.0312l.0312.0312c.0155.0138.023.0239.0312.0312s-.006.0233 0,.0312 .0265-.005.0312,0c.003.002.0249.0266.0312.0312 .0134.0136.0173.0484.0312.0625 .0127.0158.0205.0181.0312.0312 .0215.0263.0452.0418.0625.0625l.0312.0312c.005.004.0215.0236.0312.0312s-.005.0254 0,.0312l.0312.0312h.0312c.002.002-.003.0279 0,.0312l.0312.0312c.007.01-.007.0223 0,.0312 .015.0209.0249.0227.0312.0312s.026.0244.0312.0312c.004.005-.005.0255 0,.0312 .0199.0254.0667.0282.0937.0625 .006.0112-.006.0201 0,.0312 .0145.0183.0503.0469.0625.0625l.0312.0312c.004.005-.004.0261 0,.0312 .0189.0296.0471.0388.0625.0625l.0312.0625 .0312.0312c.004.005-.005.0251 0,.0312 .0123.0188.0206.0462.0312.0625-.00052-.00079.0458.0371.0625.0625s.006.0557.0312.0937l.0312.0312 .0312.0312 .0312.0312c.00035.00053.008.0237 0,.0312 .001.002-.00073.0299 0,.0312 .004.007.0261.0217.0312.0312 .0205.0383.0305.0971.0625.15625 .0163.0353.0488.0331.0625.0625 .009.0184-.006.0493 0,.0625-.005-.0103.0206.008.0312.0312s.0264.0176.0312.0312-.001.0274 0,.0312c.005.003.007.0449.0312.0937 .003.008-.003.0237 0,.0312l.0312.0625h.0312c.003.008-.003.0232 0,.0312s-.003.0259 0,.0312-.004.0226 0,.0312h.0312c.004.009-.004.022 0,.0312s-.007.0146 0,.0312c.002.007.0288.0235.0312.0312s-.003.0239 0,.0312c.007.0174.0223.0413.0312.0625s.0184.033.0312.0625c.005.0124-.006.0168 0,.0312l.0312.0625c.004.0161-.004.0475 0,.0625h.0312c.007.0278-.005.0408 0,.0625 .004.0163.027.0157.0312.0312 .003.0117-.003.0202 0,.0312s-.003.021 0,.0312 .029.0245.0312.0312c.004.0242-.003.0458 0,.0625 .001.0124-.001.0179 0,.0312s-.003.0205 0,.0312 .0288.0214.0312.0312-.002.0226 0,.0312-.002.0215 0,.0312-.00053.0271 0,.0312c.003.0104.0253.0136.0312.0312 .002.0135-.002.022 0,.0312s-.00024.0312 0,.0312c.002.007-.002.0242 0,.0312 .004.0291-.003.0411 0,.0625 .00029.001-.001.0261 0,.0312 .003.0161.0229.0545.0312.0937 .003.0294-.003.0398 0,.0625 .006.0427.0259.0581.0312.0937 .005.0338-.004.0703 0,.0937 .003.0304.027.0588.0312.0937 .003.0206-.003.0411 0,.0625 .003.0136-.003.018 0,.0312s-.002.0192 0,.0312-.00087.0238 0,.0312c.002.0157.0292.0456.0312.0625 .005.0399-.013.0688 0,.15625 .00021.008-.00021.0227 0,.0312s-.0002.0219 0,.0312c.002.0844-.001.13597 0,.1875 .00036.0129-.002.0211 0,.0625 .00038.0104-.003.0124 0,.0625 .001.0251-1e-005,.21869 0,.21875l.15625.65625 .15625-.0312c.0364.0881.0625.18747.0625.1875l.53125.84375c1e-005,1e-005 .67215-.56798 1.3125-1.09375l1.0625.34375 .71875-.1875v102.25 48.0625a4.04101,4.04101 0 0,0 5.59375,3.71875c23.06271-9.7101 47.11249-39.54301 71.59375-102.875 29.83855-77.19102 61.63023-118.82165 90.84375-140.15625a4.04101,4.04101 0 0,0 -2.375-7.28125h-24.25-131.4375-44.84375-1.625zm30.21875,90.59375-.0312-.0312c.004.003-.003.0285 0,.0312h.0312zm-13.3125.96875-.0312.0312h.0312c.003-.004-.003-.0278 0-.0312zm6.375-3.34375c-.0908.12334-.27721.2101-.4375.28125l.4375-.28125zm9.84375,8.0625c.22051.33847.4375.6875.4375.6875l-.5-.65625 .0625-.0312z" fill="url(#d)" filter="url(#i)" opacity=".63877"/>
  <path transform="matrix(.6144 0 0 .6144 -353.03 380.87)" d="m658.62 254.34a40.406 40.406 0 1 1 -80.812 0 40.406 40.406 0 1 1 80.812 0z" fill="url(#x)"/>
  <path transform="matrix(.41073 0 0 .41073 -223.3 430.66)" d="m608.56 211.53c-23.519 0-42.812 19.294-42.812 42.812 0 8.027 2.2627 15.614 6.0938 22a12.001 12.001 0 0 0 16.219 4.25c7.1594-4.0752 14.75-10.023 22.844-18.406 9.2133-9.5423 17.327-15.92 24.5-20.094a12.001 12.001 0 0 0 2.0938 -19.219c-7.5217-6.9122-17.73-11.344-28.938-11.344z" fill="url(#e)" filter="url(#j)" opacity=".64035"/>
  <path d="m106.5 577.97c-5.673 0-10.24 4.567-10.24 10.24v104.51c0 5.673 4.567 10.24 10.24 10.24h0.832c5.673 0 10.24-4.567 10.24-10.24v-60.816h2.48v155.98c0 5.673 4.567 10.24 10.24 10.24h20.48c5.673 0 10.24-4.567 10.24-10.24v-92.896h5.856v92.896c0 5.673 4.567 10.24 10.24 10.24h20.48c5.673 0 10.24-4.567 10.24-10.24v-155.98h2.48v60.816c0 5.673 4.567 10.24 10.24 10.24h0.832c5.673 0 10.24-4.567 10.24-10.24v-104.51c0-5.673-4.567-10.24-10.24-10.24h-114.88z" fill="url(#ab)"/>
  <path transform="matrix(.512 0 0 .512 -147.64 418.34)" d="m496.375,321.8125c-2.66913,0-5.31416.90791-7.1875,2.78125s-2.78125,4.51837-2.78125,7.1875v65.34375 138.78125c0,2.66913.90791,5.31416 2.78125,7.1875s4.51837,2.78125 7.1875,2.78125h1.625c2.66913,0 5.31416-.90791 7.1875-2.78125s2.78125-4.51837 2.78125-7.1875v-116.15625l1.5625-.0312 .96875-1.15625 .5625.46875 .53125-.84375 .15625-.40625c.00011-.00032.13941-.41859.15625-.5 .0243-.11744-.007-.0825 0-.125h.0625c.003-.0501-.00038-.0521 0-.0625 .002-.0414-.00036-.0496 0-.0625 .00038-.0437-.00056-.0989 0-.15625 7e-005-.007-7e-005-.0225 0-.0312s-.00021-.0227 0-.0312-.00086-.0228 0-.0312c.008-.0525-.004-.0625 0-.0937 .005-.0257-.003-.0152 0-.0312 .009-.0512.0303-.0849.0312-.0937s-.001-.0212 0-.0312-.002-.02 0-.0312-.001-.0205 0-.0312-.00023-.0196 0-.0312-.00018-.0174 0-.0312c.004-.0324.0264-.057.0312-.0937 .004-.0238-.005-.0599 0-.0937s.0257-.0435.0312-.0625c.004-.0308-.005-.0497 0-.0937s.0278-.0774.0312-.0937c.004-.0282-.005-.0498 0-.0937 .002-.0147-.002-.014 0-.0312 .001-.005-.002-.0253 0-.0312 .00052-.003-.00058-.029 0-.0312 .003-.0112.0284-.0204.0312-.0312s-.00092-.0223 0-.0312c.002-.0178-.003-.0345 0-.0625 .002-.01.0295-.0241.0312-.0312s-.002-.024 0-.0312-.002-.0257 0-.0312c.002-.0249-.00091-.0519 0-.0625s.0275-.0176.0312-.0312c.002-.0153-.003-.0127 0-.0312 .0133-.0255-.01-.0117 0-.0312 .003-.008.0311-.0299.0312-.0312 .005-.0217-.007-.0346 0-.0625h.0312c.004-.015-.004-.0464 0-.0625 .007-.0183.0255-.0477.0312-.0625s-.005-.0188 0-.0312l.0312-.0625c.005-.0115-.004-.02 0-.0312 .005-.011.0271-.0212.0312-.0312s-.002-.0226 0-.0312l.0312-.0625c.004-.009-.004-.0224 0-.0312 .005-.0126.0264-.0193.0312-.0312s-.003-.0232 0-.0312c.006-.0101-.006-.0223 0-.0312h.0312l.0312-.0625c.003-.008-.003-.0236 0-.0312 .0305-.0604.0754-.11879.0625-.0937 .002-.007-.004-.0196 0-.0312s-.003-.0243 0-.0312c.007-.012.0257-.021.0312-.0312 .00016-.00035-.00047-.0297 0-.0312s-.00078-.0285 0-.0312c.01-.0186.0508-.0409.0625-.0625 .019-.041.0428-.11318.0625-.15625l.0312-.0312c.00073-.001-.001-.0291 0-.0312s.0285.005.0312,0-3e-005-.0312 0-.0312-.00068-.0298 0-.0312l.0312-.0312 .0312-.0312c.006-.0136-.009-.01 0-.0312l.0312-.0625c.0153-.023.0495-.0426.0625-.0625l.0312-.0625c.002-.003-.001-.0292 0-.0312 .0125-.0133.0253-.0249.0312-.0312l.0312-.0625 .0312-.0312c.0119-.0155.0197-.0161.0312-.0312 .007-.008-.006-.0242 0-.0312s.018.023.0312,0c.004-.005-.003-.0268 0-.0312h.0312c.01-.0123.0199-.0481.0312-.0625s-.008-.0229 0-.0312c.0379-.0416.0876-.0548.0937-.0625s-.004-.0262 0-.0312 .00033-.031 0-.0312h.0312l.0312-.0312c.005-.006-.005-.0256 0-.0312 .0225-.0249.0254-.0246.0312-.0312 .003-.003-.002-.0293 0-.0312h.0312c.004-.005-.004-.0266 0-.0312h.0312c.01-.0129.0198-.0474.0312-.0625l.0312-.0312 .0312-.0312 .0312-.0312 .0312-.0312 .0312-.0312c.0185-.0175.0221-.0537.0312-.0625l.0312-.0312 .0312-.0312c.008-.005.0248.004.0312,0l.0312-.0312c.001-.001-.001-.0299 0-.0312l.0312-.0312h.0312l.0312-.0312c.005-.005-.005-.0268 0-.0312l.0312-.0312h.0312c.0158-.0127.0181-.0205.0312-.0312 .0183-.0132.0167-.0206.0312-.0312l.0312-.0312 .0312-.0312 .0312-.0312c.006-.005.025.005.0312,0l.0312-.0312c.009-.009-.01-.0212 0-.0312h.0312l.0312-.0312c.01-.007.0223.007.0312,0 .0209-.015.0227-.0249.0312-.0312s.0244-.026.0312-.0312c.005-.004.0255.005.0312,0 .0254-.0199.0282-.0667.0625-.0937 .0241-.0141.015.01.0312,0 .0144-.0114.0502-.0217.0625-.0312 .003-.003-.003-.0286 0-.0312h.0312c.003-.003-.004-.0285 0-.0312 .0224-.0171.0372-.0119.0625-.0312 .009-.007.0233-.0253.0312-.0312l.0625-.0312 .0312-.0312c.007-.007.0231.008.0312,0l.0625-.0312c.0199-.013.0395-.0472.0625-.0625 .0261-.0174.0533-.004.0937-.0312 .01-.007.0224-.0255.0312-.0312l.0312-.0312c.003-.001.0539.006.0625,0-.00061.00041.008-.0233 0-.0312l.0625-.0312c.043-.0197.11533-.0435.15625-.0625s.0331-.0488.0625-.0625l.0937-.0312 .0312-.0312h.0312c.003-.005.0449-.007.0937-.0312 .0151-.008.0162.008.0312,0 .0154-.008.0499-.0251.0625-.0312 .003-.002-.003-.0297 0-.0312h.0312 .0312 .0312c0,0 8e-005-.0311 0-.0312 .0196-.006.0737-.025.0937-.0312 .006-.003.0787-.0218.0937-.0312l.0625-.0312 .0937-.0312h.0625c.002-.00046-.002-.0308 0-.0312 .0151-.004.0452.005.0625,0s.008-.0226.0312-.0312h.0312l.0625-.0312h.0625 .0312 .0312c.007-.002.0214-.0288.0312-.0312h.0312 .0625c.0108-.003.02-.0282.0312-.0312h.0312 .0312 .0312 .0625 .0312c.0165-.003.0545-.0229.0937-.0312h.0625 .0312c.028-.004.0381-.0276.0625-.0312 .0338-.005.0703.004.0937,0 .0304-.003.0588-.027.0937-.0312s.0548.005.0937,0h.0312 .0312c.0157-.002.0456-.0292.0625-.0312 .0399-.005.0688.013.15625,0h.0312 .0312 .1875 .0625 .0625 .21875l.65625-.15625-.0312-.15625c.0881-.0364.18747-.0625.1875-.0625l.84375-.53125c0,0-.17493-.22922-.21875-.28125h1.5l-.25.28125 .84375.53125 .40625.15625c.00032.00011.41859.13941.5.15625 .11744.0243.0825-.007.125,0 .00026.002-.00039.0625 0,.0625h.0625 .0625 .15625 .0312 .0312 .0312c.0525.008.0625-.004.0937,0 .0257.005.0153-.003.0312,0 .0279.004.0706.0285.0937.0312h.0312 .0312 .0625 .0312c.0324.004.057.0264.0937.0312h.0937l.15625.0312 .0937.0312c.0282.004.0498-.005.0937,0h.0312 .0312 .0312c.0153.004.0171.0276.0312.0312h.0312c.0195.005.0477-.004.0625,0s.0241.0295.0312.0312h.0625c.0133.004.0445-.005.0625,0 .012.003.0176.0275.0312.0312h.0312 .0312c.008.003.0299.0311.0312.0312 .0173.005.0474-.004.0625,0 .002.00047-.002.0308 0,.0312h.0625 .0312c.01.004.0225.0279.0312.0312 .0146.006.0187-.005.0312,0l.0937.0312c.015.006.0174.0258.0312.0312h.0312 .0312c.007.002.0241.029.0312.0312h.0312c.0126.005.0193.0264.0312.0312h.0312 .0312c.003.001-.003.0299 0,.0312l.0625.0312c.015.008.0161-.008.0312,0 .0604.0305.11879.0754.0937.0625 .019.0107.0477-.008.0625,0h.0312l.0625.0312c.0294.0137.0272.0461.0625.0625 .0592.032.11798.042.15625.0625 .0256.0196.0164.0203.0312.0312h.0312c.002.001-.005.0285 0,.0312h.0312 .0312c.011.005.014.0228.0312.0312l.0312.0312c.0106.007.0207-.007.0312,0 .0274.018.0418.0177.0625.0312 .023.0153.0426.0495.0625.0625l.0625.0312c.008.005.0239-.005.0312,0l.0312.0312 .0625.0312 .0312.0312 .0625.0312 .0312.0312c.003.002-.004.0291 0,.0312l.0625.0312c.008.006.0235-.006.0312,0 .0343.027.0371.0738.0625.0937h.0312 .0312c.006.005-.005.0267 0,.0312l.0312.0312c.009.007.0216-.007.0312,0s.0138.0193.0312.0312h.0312c.004.003-.004.0285 0,.0312 .005.005.0255-.005.0312,0 .004.003-.004.0285 0,.0312l.0625.0312c.0305.0256.0543.0615.0937.0937l.0312.0312 .0625.0312 .0312.0312 .0312.0312 .0312.0312c.0138.0155.0217.0206.0312.0312l.0312.0312c.0155.0138.023.0239.0312.0312s-.006.0233 0,.0312 .0265-.005.0312,0c.003.002.0249.0266.0312.0312 .0134.0136.0173.0484.0312.0625 .0127.0158.0205.0181.0312.0312 .0215.0263.0452.0418.0625.0625l.0312.0312c.005.004.0215.0236.0312.0312s-.005.0254 0,.0312l.0312.0312h.0312c.002.002-.003.0279 0,.0312l.0312.0312c.007.01-.007.0223 0,.0312 .015.0209.0249.0227.0312.0312s.026.0244.0312.0312c.004.005-.005.0255 0,.0312 .0199.0254.0667.0282.0937.0625 .006.0112-.006.0201 0,.0312 .0145.0183.0503.0469.0625.0625l.0312.0312c.004.005-.004.0261 0,.0312 .0189.0296.0471.0388.0625.0625l.0312.0625 .0312.0312c.004.005-.005.0251 0,.0312 .0123.0188.0206.0462.0312.0625-.00052-.00079.0458.0371.0625.0625s.006.0557.0312.0937l.0312.0312 .0312.0312 .0312.0312c.00035.00053.008.0237 0,.0312 .001.002-.00073.0299 0,.0312 .004.007.0261.0217.0312.0312 .0205.0383.0305.0971.0625.15625 .0163.0353.0488.0331.0625.0625 .009.0184-.006.0493 0,.0625-.005-.0103.0206.008.0312.0312s.0264.0176.0312.0312-.001.0274 0,.0312c.005.003.007.0449.0312.0937 .003.008-.003.0237 0,.0312l.0312.0625h.0312c.003.008-.003.0232 0,.0312s-.003.0259 0,.0312-.004.0226 0,.0312h.0312c.004.009-.004.022 0,.0312s-.007.0146 0,.0312c.002.007.0288.0235.0312.0312s-.003.0239 0,.0312c.007.0174.0223.0413.0312.0625s.0184.033.0312.0625c.005.0124-.006.0168 0,.0312l.0312.0625c.004.0161-.004.0475 0,.0625h.0312c.007.0278-.005.0408 0,.0625 .004.0163.027.0157.0312.0312 .003.0117-.003.0202 0,.0312s-.003.021 0,.0312 .029.0245.0312.0312c.004.0242-.003.0458 0,.0625 .001.0124-.001.0179 0,.0312s-.003.0205 0,.0312 .0288.0214.0312.0312-.002.0226 0,.0312-.002.0215 0,.0312-.00053.0271 0,.0312c.003.0104.0253.0136.0312.0312 .002.0135-.002.022 0,.0312s-.00024.0312 0,.0312c.002.007-.002.0242 0,.0312 .004.0291-.003.0411 0,.0625 .00029.001-.001.0261 0,.0312 .003.0161.0229.0545.0312.0937 .003.0294-.003.0398 0,.0625 .006.0427.0259.0581.0312.0937 .005.0338-.004.0703 0,.0937 .003.0304.027.0588.0312.0937 .003.0206-.003.0411 0,.0625 .003.0136-.003.018 0,.0312s-.002.0192 0,.0312-.00087.0238 0,.0312c.002.0157.0292.0456.0312.0625 .005.0399-.013.0688 0,.15625 .00021.008-.00021.0227 0,.0312s-.0002.0219 0,.0312c.002.0844-.001.13597 0,.1875 .00036.0129-.002.0211 0,.0625 .00038.0104-.003.0124 0,.0625 .001.0251-1e-005,.21869 0,.21875l.15625.65625 .15625-.0312c.0364.0881.0625.18747.0625.1875l.53125.84375c1e-005,1e-005 .67215-.56798 1.3125-1.09375l1.0625.34375 .71875-.1875v102.25 48.0625a4.04101,4.04101 0 0,0 5.59375,3.71875c23.06271-9.7101 47.11249-39.54301 71.59375-102.875 29.83855-77.19102 61.63023-118.82165 90.84375-140.15625a4.04101,4.04101 0 0,0 -2.375-7.28125h-24.25-131.4375-44.84375-1.625zm30.21875,90.59375-.0312-.0312c.004.003-.003.0285 0,.0312h.0312zm-13.3125.96875-.0312.0312h.0312c.003-.004-.003-.0278 0-.0312zm6.375-3.34375c-.0908.12334-.27721.2101-.4375.28125l.4375-.28125zm9.84375,8.0625c.22051.33847.4375.6875.4375.6875l-.5-.65625 .0625-.0312z" fill="url(#d)" filter="url(#i)" opacity=".63877"/>
  <path transform="matrix(.6144 0 0 .6144 -215.89 392.29)" d="m658.62 254.34a40.406 40.406 0 1 1 -80.812 0 40.406 40.406 0 1 1 80.812 0z" fill="url(#w)"/>
  <path transform="matrix(.47364 0 0 .47364 -123.94 427.28)" d="m608.56 211.53c-23.519 0-42.812 19.294-42.812 42.812 0 8.027 2.2627 15.614 6.0938 22a12.001 12.001 0 0 0 16.219 4.25c7.1594-4.0752 14.75-10.023 22.844-18.406 9.2133-9.5423 17.327-15.92 24.5-20.094a12.001 12.001 0 0 0 2.0938 -19.219c-7.5217-6.9122-17.73-11.344-28.938-11.344z" fill="url(#e)" filter="url(#j)" opacity=".64035"/>
  <path d="m40.788 580.83c-5.673 0-10.24 4.567-10.24 10.24v104.51c0 5.673 4.567 10.24 10.24 10.24h0.832c5.673 0 10.24-4.567 10.24-10.24v-60.816h2.48v155.98c0 5.673 4.567 10.24 10.24 10.24h20.48c5.673 0 10.24-4.567 10.24-10.24v-92.896h5.856v92.896c0 5.673 4.567 10.24 10.24 10.24h20.48c5.673 0 10.24-4.567 10.24-10.24v-155.98h2.48v60.816c0 5.673 4.567 10.24 10.24 10.24h0.832c5.673 0 10.24-4.567 10.24-10.24v-104.51c0-5.673-4.567-10.24-10.24-10.24h-114.88z" fill="url(#z)"/>
  <path transform="matrix(.512 0 0 .512 -213.36 421.2)" d="m496.375,321.8125c-2.66913,0-5.31416.90791-7.1875,2.78125s-2.78125,4.51837-2.78125,7.1875v65.34375 138.78125c0,2.66913.90791,5.31416 2.78125,7.1875s4.51837,2.78125 7.1875,2.78125h1.625c2.66913,0 5.31416-.90791 7.1875-2.78125s2.78125-4.51837 2.78125-7.1875v-116.15625l1.5625-.0312 .96875-1.15625 .5625.46875 .53125-.84375 .15625-.40625c.00011-.00032.13941-.41859.15625-.5 .0243-.11744-.007-.0825 0-.125h.0625c.003-.0501-.00038-.0521 0-.0625 .002-.0414-.00036-.0496 0-.0625 .00038-.0437-.00056-.0989 0-.15625 7e-005-.007-7e-005-.0225 0-.0312s-.00021-.0227 0-.0312-.00086-.0228 0-.0312c.008-.0525-.004-.0625 0-.0937 .005-.0257-.003-.0152 0-.0312 .009-.0512.0303-.0849.0312-.0937s-.001-.0212 0-.0312-.002-.02 0-.0312-.001-.0205 0-.0312-.00023-.0196 0-.0312-.00018-.0174 0-.0312c.004-.0324.0264-.057.0312-.0937 .004-.0238-.005-.0599 0-.0937s.0257-.0435.0312-.0625c.004-.0308-.005-.0497 0-.0937s.0278-.0774.0312-.0937c.004-.0282-.005-.0498 0-.0937 .002-.0147-.002-.014 0-.0312 .001-.005-.002-.0253 0-.0312 .00052-.003-.00058-.029 0-.0312 .003-.0112.0284-.0204.0312-.0312s-.00092-.0223 0-.0312c.002-.0178-.003-.0345 0-.0625 .002-.01.0295-.0241.0312-.0312s-.002-.024 0-.0312-.002-.0257 0-.0312c.002-.0249-.00091-.0519 0-.0625s.0275-.0176.0312-.0312c.002-.0153-.003-.0127 0-.0312 .0133-.0255-.01-.0117 0-.0312 .003-.008.0311-.0299.0312-.0312 .005-.0217-.007-.0346 0-.0625h.0312c.004-.015-.004-.0464 0-.0625 .007-.0183.0255-.0477.0312-.0625s-.005-.0188 0-.0312l.0312-.0625c.005-.0115-.004-.02 0-.0312 .005-.011.0271-.0212.0312-.0312s-.002-.0226 0-.0312l.0312-.0625c.004-.009-.004-.0224 0-.0312 .005-.0126.0264-.0193.0312-.0312s-.003-.0232 0-.0312c.006-.0101-.006-.0223 0-.0312h.0312l.0312-.0625c.003-.008-.003-.0236 0-.0312 .0305-.0604.0754-.11879.0625-.0937 .002-.007-.004-.0196 0-.0312s-.003-.0243 0-.0312c.007-.012.0257-.021.0312-.0312 .00016-.00035-.00047-.0297 0-.0312s-.00078-.0285 0-.0312c.01-.0186.0508-.0409.0625-.0625 .019-.041.0428-.11318.0625-.15625l.0312-.0312c.00073-.001-.001-.0291 0-.0312s.0285.005.0312,0-3e-005-.0312 0-.0312-.00068-.0298 0-.0312l.0312-.0312 .0312-.0312c.006-.0136-.009-.01 0-.0312l.0312-.0625c.0153-.023.0495-.0426.0625-.0625l.0312-.0625c.002-.003-.001-.0292 0-.0312 .0125-.0133.0253-.0249.0312-.0312l.0312-.0625 .0312-.0312c.0119-.0155.0197-.0161.0312-.0312 .007-.008-.006-.0242 0-.0312s.018.023.0312,0c.004-.005-.003-.0268 0-.0312h.0312c.01-.0123.0199-.0481.0312-.0625s-.008-.0229 0-.0312c.0379-.0416.0876-.0548.0937-.0625s-.004-.0262 0-.0312 .00033-.031 0-.0312h.0312l.0312-.0312c.005-.006-.005-.0256 0-.0312 .0225-.0249.0254-.0246.0312-.0312 .003-.003-.002-.0293 0-.0312h.0312c.004-.005-.004-.0266 0-.0312h.0312c.01-.0129.0198-.0474.0312-.0625l.0312-.0312 .0312-.0312 .0312-.0312 .0312-.0312 .0312-.0312c.0185-.0175.0221-.0537.0312-.0625l.0312-.0312 .0312-.0312c.008-.005.0248.004.0312,0l.0312-.0312c.001-.001-.001-.0299 0-.0312l.0312-.0312h.0312l.0312-.0312c.005-.005-.005-.0268 0-.0312l.0312-.0312h.0312c.0158-.0127.0181-.0205.0312-.0312 .0183-.0132.0167-.0206.0312-.0312l.0312-.0312 .0312-.0312 .0312-.0312c.006-.005.025.005.0312,0l.0312-.0312c.009-.009-.01-.0212 0-.0312h.0312l.0312-.0312c.01-.007.0223.007.0312,0 .0209-.015.0227-.0249.0312-.0312s.0244-.026.0312-.0312c.005-.004.0255.005.0312,0 .0254-.0199.0282-.0667.0625-.0937 .0241-.0141.015.01.0312,0 .0144-.0114.0502-.0217.0625-.0312 .003-.003-.003-.0286 0-.0312h.0312c.003-.003-.004-.0285 0-.0312 .0224-.0171.0372-.0119.0625-.0312 .009-.007.0233-.0253.0312-.0312l.0625-.0312 .0312-.0312c.007-.007.0231.008.0312,0l.0625-.0312c.0199-.013.0395-.0472.0625-.0625 .0261-.0174.0533-.004.0937-.0312 .01-.007.0224-.0255.0312-.0312l.0312-.0312c.003-.001.0539.006.0625,0-.00061.00041.008-.0233 0-.0312l.0625-.0312c.043-.0197.11533-.0435.15625-.0625s.0331-.0488.0625-.0625l.0937-.0312 .0312-.0312h.0312c.003-.005.0449-.007.0937-.0312 .0151-.008.0162.008.0312,0 .0154-.008.0499-.0251.0625-.0312 .003-.002-.003-.0297 0-.0312h.0312 .0312 .0312c0,0 8e-005-.0311 0-.0312 .0196-.006.0737-.025.0937-.0312 .006-.003.0787-.0218.0937-.0312l.0625-.0312 .0937-.0312h.0625c.002-.00046-.002-.0308 0-.0312 .0151-.004.0452.005.0625,0s.008-.0226.0312-.0312h.0312l.0625-.0312h.0625 .0312 .0312c.007-.002.0214-.0288.0312-.0312h.0312 .0625c.0108-.003.02-.0282.0312-.0312h.0312 .0312 .0312 .0625 .0312c.0165-.003.0545-.0229.0937-.0312h.0625 .0312c.028-.004.0381-.0276.0625-.0312 .0338-.005.0703.004.0937,0 .0304-.003.0588-.027.0937-.0312s.0548.005.0937,0h.0312 .0312c.0157-.002.0456-.0292.0625-.0312 .0399-.005.0688.013.15625,0h.0312 .0312 .1875 .0625 .0625 .21875l.65625-.15625-.0312-.15625c.0881-.0364.18747-.0625.1875-.0625l.84375-.53125c0,0-.17493-.22922-.21875-.28125h1.5l-.25.28125 .84375.53125 .40625.15625c.00032.00011.41859.13941.5.15625 .11744.0243.0825-.007.125,0 .00026.002-.00039.0625 0,.0625h.0625 .0625 .15625 .0312 .0312 .0312c.0525.008.0625-.004.0937,0 .0257.005.0153-.003.0312,0 .0279.004.0706.0285.0937.0312h.0312 .0312 .0625 .0312c.0324.004.057.0264.0937.0312h.0937l.15625.0312 .0937.0312c.0282.004.0498-.005.0937,0h.0312 .0312 .0312c.0153.004.0171.0276.0312.0312h.0312c.0195.005.0477-.004.0625,0s.0241.0295.0312.0312h.0625c.0133.004.0445-.005.0625,0 .012.003.0176.0275.0312.0312h.0312 .0312c.008.003.0299.0311.0312.0312 .0173.005.0474-.004.0625,0 .002.00047-.002.0308 0,.0312h.0625 .0312c.01.004.0225.0279.0312.0312 .0146.006.0187-.005.0312,0l.0937.0312c.015.006.0174.0258.0312.0312h.0312 .0312c.007.002.0241.029.0312.0312h.0312c.0126.005.0193.0264.0312.0312h.0312 .0312c.003.001-.003.0299 0,.0312l.0625.0312c.015.008.0161-.008.0312,0 .0604.0305.11879.0754.0937.0625 .019.0107.0477-.008.0625,0h.0312l.0625.0312c.0294.0137.0272.0461.0625.0625 .0592.032.11798.042.15625.0625 .0256.0196.0164.0203.0312.0312h.0312c.002.001-.005.0285 0,.0312h.0312 .0312c.011.005.014.0228.0312.0312l.0312.0312c.0106.007.0207-.007.0312,0 .0274.018.0418.0177.0625.0312 .023.0153.0426.0495.0625.0625l.0625.0312c.008.005.0239-.005.0312,0l.0312.0312 .0625.0312 .0312.0312 .0625.0312 .0312.0312c.003.002-.004.0291 0,.0312l.0625.0312c.008.006.0235-.006.0312,0 .0343.027.0371.0738.0625.0937h.0312 .0312c.006.005-.005.0267 0,.0312l.0312.0312c.009.007.0216-.007.0312,0s.0138.0193.0312.0312h.0312c.004.003-.004.0285 0,.0312 .005.005.0255-.005.0312,0 .004.003-.004.0285 0,.0312l.0625.0312c.0305.0256.0543.0615.0937.0937l.0312.0312 .0625.0312 .0312.0312 .0312.0312 .0312.0312c.0138.0155.0217.0206.0312.0312l.0312.0312c.0155.0138.023.0239.0312.0312s-.006.0233 0,.0312 .0265-.005.0312,0c.003.002.0249.0266.0312.0312 .0134.0136.0173.0484.0312.0625 .0127.0158.0205.0181.0312.0312 .0215.0263.0452.0418.0625.0625l.0312.0312c.005.004.0215.0236.0312.0312s-.005.0254 0,.0312l.0312.0312h.0312c.002.002-.003.0279 0,.0312l.0312.0312c.007.01-.007.0223 0,.0312 .015.0209.0249.0227.0312.0312s.026.0244.0312.0312c.004.005-.005.0255 0,.0312 .0199.0254.0667.0282.0937.0625 .006.0112-.006.0201 0,.0312 .0145.0183.0503.0469.0625.0625l.0312.0312c.004.005-.004.0261 0,.0312 .0189.0296.0471.0388.0625.0625l.0312.0625 .0312.0312c.004.005-.005.0251 0,.0312 .0123.0188.0206.0462.0312.0625-.00052-.00079.0458.0371.0625.0625s.006.0557.0312.0937l.0312.0312 .0312.0312 .0312.0312c.00035.00053.008.0237 0,.0312 .001.002-.00073.0299 0,.0312 .004.007.0261.0217.0312.0312 .0205.0383.0305.0971.0625.15625 .0163.0353.0488.0331.0625.0625 .009.0184-.006.0493 0,.0625-.005-.0103.0206.008.0312.0312s.0264.0176.0312.0312-.001.0274 0,.0312c.005.003.007.0449.0312.0937 .003.008-.003.0237 0,.0312l.0312.0625h.0312c.003.008-.003.0232 0,.0312s-.003.0259 0,.0312-.004.0226 0,.0312h.0312c.004.009-.004.022 0,.0312s-.007.0146 0,.0312c.002.007.0288.0235.0312.0312s-.003.0239 0,.0312c.007.0174.0223.0413.0312.0625s.0184.033.0312.0625c.005.0124-.006.0168 0,.0312l.0312.0625c.004.0161-.004.0475 0,.0625h.0312c.007.0278-.005.0408 0,.0625 .004.0163.027.0157.0312.0312 .003.0117-.003.0202 0,.0312s-.003.021 0,.0312 .029.0245.0312.0312c.004.0242-.003.0458 0,.0625 .001.0124-.001.0179 0,.0312s-.003.0205 0,.0312 .0288.0214.0312.0312-.002.0226 0,.0312-.002.0215 0,.0312-.00053.0271 0,.0312c.003.0104.0253.0136.0312.0312 .002.0135-.002.022 0,.0312s-.00024.0312 0,.0312c.002.007-.002.0242 0,.0312 .004.0291-.003.0411 0,.0625 .00029.001-.001.0261 0,.0312 .003.0161.0229.0545.0312.0937 .003.0294-.003.0398 0,.0625 .006.0427.0259.0581.0312.0937 .005.0338-.004.0703 0,.0937 .003.0304.027.0588.0312.0937 .003.0206-.003.0411 0,.0625 .003.0136-.003.018 0,.0312s-.002.0192 0,.0312-.00087.0238 0,.0312c.002.0157.0292.0456.0312.0625 .005.0399-.013.0688 0,.15625 .00021.008-.00021.0227 0,.0312s-.0002.0219 0,.0312c.002.0844-.001.13597 0,.1875 .00036.0129-.002.0211 0,.0625 .00038.0104-.003.0124 0,.0625 .001.0251-1e-005,.21869 0,.21875l.15625.65625 .15625-.0312c.0364.0881.0625.18747.0625.1875l.53125.84375c1e-005,1e-005 .67215-.56798 1.3125-1.09375l1.0625.34375 .71875-.1875v102.25 48.0625a4.04101,4.04101 0 0,0 5.59375,3.71875c23.06271-9.7101 47.11249-39.54301 71.59375-102.875 29.83855-77.19102 61.63023-118.82165 90.84375-140.15625a4.04101,4.04101 0 0,0 -2.375-7.28125h-24.25-131.4375-44.84375-1.625zm30.21875,90.59375-.0312-.0312c.004.003-.003.0285 0,.0312h.0312zm-13.3125.96875-.0312.0312h.0312c.003-.004-.003-.0278 0-.0312zm6.375-3.34375c-.0908.12334-.27721.2101-.4375.28125l.4375-.28125zm9.84375,8.0625c.22051.33847.4375.6875.4375.6875l-.5-.65625 .0625-.0312z" fill="url(#d)" filter="url(#i)" opacity=".63877"/>
  <path transform="matrix(.6144 0 0 .6144 -281.6 395.15)" d="m658.62 254.34a40.406 40.406 0 1 1 -80.812 0 40.406 40.406 0 1 1 80.812 0z" fill="url(#aa)"/>
  <path transform="matrix(.45265 0 0 .45265 -177.75 436.5)" d="m608.56 211.53c-23.519 0-42.812 19.294-42.812 42.812 0 8.027 2.2627 15.614 6.0938 22a12.001 12.001 0 0 0 16.219 4.25c7.1594-4.0752 14.75-10.023 22.844-18.406 9.2133-9.5423 17.327-15.92 24.5-20.094a12.001 12.001 0 0 0 2.0938 -19.219c-7.5217-6.9122-17.73-11.344-28.938-11.344z" fill="url(#e)" filter="url(#j)" opacity=".64035"/>
 </g>
</svg>
